<mxfile host="app.diagrams.net" modified="2022-03-27T13:54:58.913Z" agent="5.0 (Windows NT 10.0; Win64; x64) AppleWebKit/537.36 (KHTML, like Gecko) Chrome/99.0.4844.74 Safari/537.36 Edg/99.0.1150.52" etag="Dx2Ft9AH1mKv2Dk0e_9Q" version="17.2.4" type="github">
  <diagram id="C5RBs43oDa-KdzZeNtuy" name="Page-1">
    <mxGraphModel dx="1962" dy="1268" grid="0" gridSize="10" guides="1" tooltips="1" connect="1" arrows="1" fold="1" page="0" pageScale="1" pageWidth="827" pageHeight="1169" math="0" shadow="0">
      <root>
        <mxCell id="WIyWlLk6GJQsqaUBKTNV-0" />
        <mxCell id="WIyWlLk6GJQsqaUBKTNV-1" parent="WIyWlLk6GJQsqaUBKTNV-0" />
        <mxCell id="ZSZEKu7pOIrbtc3AaUpl-3" value="" style="edgeStyle=orthogonalEdgeStyle;rounded=0;orthogonalLoop=1;jettySize=auto;html=1;" edge="1" parent="WIyWlLk6GJQsqaUBKTNV-1" source="ZSZEKu7pOIrbtc3AaUpl-1" target="ZSZEKu7pOIrbtc3AaUpl-2">
          <mxGeometry relative="1" as="geometry" />
        </mxCell>
        <mxCell id="ZSZEKu7pOIrbtc3AaUpl-1" value="&lt;h1&gt;&lt;font face=&quot;宋体&quot; data-font-src=&quot;https://songti.laoxiezi.com/&quot; style=&quot;font-size: 18px&quot;&gt;数据采集&lt;/font&gt;&lt;/h1&gt;" style="rounded=0;whiteSpace=wrap;html=1;" vertex="1" parent="WIyWlLk6GJQsqaUBKTNV-1">
          <mxGeometry x="20" y="160" width="120" height="60" as="geometry" />
        </mxCell>
        <mxCell id="ZSZEKu7pOIrbtc3AaUpl-5" value="" style="edgeStyle=orthogonalEdgeStyle;rounded=0;orthogonalLoop=1;jettySize=auto;html=1;" edge="1" parent="WIyWlLk6GJQsqaUBKTNV-1" source="ZSZEKu7pOIrbtc3AaUpl-2" target="ZSZEKu7pOIrbtc3AaUpl-4">
          <mxGeometry relative="1" as="geometry" />
        </mxCell>
        <mxCell id="ZSZEKu7pOIrbtc3AaUpl-2" value="&lt;p class=&quot;MsoNormal&quot;&gt;&lt;span&gt;&lt;font style=&quot;font-size: 18px&quot; face=&quot;宋体&quot; data-font-src=&quot;https://songti.laoxiezi.com/&quot;&gt;&lt;b&gt;数据标注、处理&lt;/b&gt;&lt;/font&gt;&lt;span lang=&quot;EN-US&quot; style=&quot;font-size: 14pt&quot;&gt;&lt;/span&gt;&lt;/span&gt;&lt;/p&gt;" style="rounded=0;whiteSpace=wrap;html=1;" vertex="1" parent="WIyWlLk6GJQsqaUBKTNV-1">
          <mxGeometry x="20" y="300" width="120" height="60" as="geometry" />
        </mxCell>
        <mxCell id="ZSZEKu7pOIrbtc3AaUpl-6" style="edgeStyle=orthogonalEdgeStyle;rounded=0;orthogonalLoop=1;jettySize=auto;html=1;entryX=0;entryY=0.5;entryDx=0;entryDy=0;" edge="1" parent="WIyWlLk6GJQsqaUBKTNV-1" source="ZSZEKu7pOIrbtc3AaUpl-4" target="ZSZEKu7pOIrbtc3AaUpl-7">
          <mxGeometry relative="1" as="geometry">
            <mxPoint x="590" y="180" as="targetPoint" />
          </mxGeometry>
        </mxCell>
        <mxCell id="ZSZEKu7pOIrbtc3AaUpl-4" value="&lt;p class=&quot;MsoNormal&quot;&gt;&lt;span&gt;&lt;font style=&quot;font-size: 18px&quot; face=&quot;宋体&quot; data-font-src=&quot;https://songti.laoxiezi.com/&quot;&gt;&lt;b&gt;样本数据库&lt;/b&gt;&lt;/font&gt;&lt;span lang=&quot;EN-US&quot;&gt;&lt;/span&gt;&lt;/span&gt;&lt;/p&gt;" style="rounded=0;whiteSpace=wrap;html=1;" vertex="1" parent="WIyWlLk6GJQsqaUBKTNV-1">
          <mxGeometry x="20" y="440" width="120" height="60" as="geometry" />
        </mxCell>
        <mxCell id="ZSZEKu7pOIrbtc3AaUpl-9" value="" style="edgeStyle=orthogonalEdgeStyle;rounded=0;orthogonalLoop=1;jettySize=auto;html=1;" edge="1" parent="WIyWlLk6GJQsqaUBKTNV-1" source="ZSZEKu7pOIrbtc3AaUpl-7" target="ZSZEKu7pOIrbtc3AaUpl-8">
          <mxGeometry relative="1" as="geometry" />
        </mxCell>
        <mxCell id="ZSZEKu7pOIrbtc3AaUpl-7" value="&lt;p class=&quot;MsoNormal&quot;&gt;&lt;span&gt;&lt;font face=&quot;宋体&quot; data-font-src=&quot;https://songti.laoxiezi.com/&quot; style=&quot;font-size: 18px&quot;&gt;&lt;b&gt;模型主干特征提取部分&lt;/b&gt;&lt;/font&gt;&lt;span lang=&quot;EN-US&quot;&gt;&lt;/span&gt;&lt;/span&gt;&lt;/p&gt;" style="rounded=0;whiteSpace=wrap;html=1;" vertex="1" parent="WIyWlLk6GJQsqaUBKTNV-1">
          <mxGeometry x="620" y="160" width="120" height="60" as="geometry" />
        </mxCell>
        <mxCell id="ZSZEKu7pOIrbtc3AaUpl-11" value="" style="edgeStyle=orthogonalEdgeStyle;rounded=0;orthogonalLoop=1;jettySize=auto;html=1;" edge="1" parent="WIyWlLk6GJQsqaUBKTNV-1" source="ZSZEKu7pOIrbtc3AaUpl-8" target="ZSZEKu7pOIrbtc3AaUpl-10">
          <mxGeometry relative="1" as="geometry" />
        </mxCell>
        <mxCell id="ZSZEKu7pOIrbtc3AaUpl-8" value="&lt;p class=&quot;MsoNormal&quot;&gt;&lt;span&gt;&lt;font face=&quot;宋体&quot; data-font-src=&quot;https://songti.laoxiezi.com/&quot; style=&quot;font-size: 18px&quot;&gt;&lt;b&gt;模型特征融合部分&lt;/b&gt;&lt;/font&gt;&lt;span lang=&quot;EN-US&quot;&gt;&lt;/span&gt;&lt;/span&gt;&lt;/p&gt;" style="rounded=0;whiteSpace=wrap;html=1;" vertex="1" parent="WIyWlLk6GJQsqaUBKTNV-1">
          <mxGeometry x="620" y="300" width="120" height="60" as="geometry" />
        </mxCell>
        <mxCell id="ZSZEKu7pOIrbtc3AaUpl-13" value="" style="edgeStyle=orthogonalEdgeStyle;rounded=0;orthogonalLoop=1;jettySize=auto;html=1;" edge="1" parent="WIyWlLk6GJQsqaUBKTNV-1" source="ZSZEKu7pOIrbtc3AaUpl-10" target="ZSZEKu7pOIrbtc3AaUpl-12">
          <mxGeometry relative="1" as="geometry" />
        </mxCell>
        <mxCell id="ZSZEKu7pOIrbtc3AaUpl-10" value="&lt;p class=&quot;MsoNormal&quot;&gt;&lt;span&gt;&lt;font face=&quot;宋体&quot; data-font-src=&quot;https://songti.laoxiezi.com/&quot; style=&quot;font-size: 18px&quot;&gt;&lt;b&gt;模型预测部分&lt;/b&gt;&lt;/font&gt;&lt;span lang=&quot;EN-US&quot;&gt;&lt;/span&gt;&lt;/span&gt;&lt;/p&gt;" style="rounded=0;whiteSpace=wrap;html=1;" vertex="1" parent="WIyWlLk6GJQsqaUBKTNV-1">
          <mxGeometry x="620" y="440" width="120" height="60" as="geometry" />
        </mxCell>
        <mxCell id="ZSZEKu7pOIrbtc3AaUpl-14" style="edgeStyle=orthogonalEdgeStyle;rounded=0;orthogonalLoop=1;jettySize=auto;html=1;" edge="1" parent="WIyWlLk6GJQsqaUBKTNV-1" source="ZSZEKu7pOIrbtc3AaUpl-12" target="ZSZEKu7pOIrbtc3AaUpl-15">
          <mxGeometry relative="1" as="geometry">
            <mxPoint x="680.0000000000002" y="750" as="targetPoint" />
          </mxGeometry>
        </mxCell>
        <mxCell id="ZSZEKu7pOIrbtc3AaUpl-16" style="edgeStyle=orthogonalEdgeStyle;rounded=0;orthogonalLoop=1;jettySize=auto;html=1;exitX=0;exitY=0.5;exitDx=0;exitDy=0;" edge="1" parent="WIyWlLk6GJQsqaUBKTNV-1" source="ZSZEKu7pOIrbtc3AaUpl-12" target="ZSZEKu7pOIrbtc3AaUpl-17">
          <mxGeometry relative="1" as="geometry">
            <mxPoint x="430" y="610" as="targetPoint" />
          </mxGeometry>
        </mxCell>
        <mxCell id="ZSZEKu7pOIrbtc3AaUpl-12" value="&lt;p class=&quot;MsoNormal&quot;&gt;&lt;span&gt;&lt;font face=&quot;宋体&quot; data-font-src=&quot;https://songti.laoxiezi.com/&quot; style=&quot;font-size: 18px&quot;&gt;&lt;b&gt;病灶位置和种类的实时预测信息&lt;/b&gt;&lt;/font&gt;&lt;span lang=&quot;EN-US&quot;&gt;&lt;/span&gt;&lt;/span&gt;&lt;/p&gt;" style="rounded=0;whiteSpace=wrap;html=1;" vertex="1" parent="WIyWlLk6GJQsqaUBKTNV-1">
          <mxGeometry x="616.5" y="575.5" width="127" height="69" as="geometry" />
        </mxCell>
        <mxCell id="ZSZEKu7pOIrbtc3AaUpl-15" value="&lt;p class=&quot;MsoNormal&quot;&gt;&lt;span&gt;&lt;font face=&quot;宋体&quot; data-font-src=&quot;https://songti.laoxiezi.com/&quot; style=&quot;font-size: 18px&quot;&gt;&lt;b&gt;可视化输出&lt;/b&gt;&lt;/font&gt;&lt;span lang=&quot;EN-US&quot;&gt;&lt;/span&gt;&lt;/span&gt;&lt;/p&gt;" style="rounded=0;whiteSpace=wrap;html=1;" vertex="1" parent="WIyWlLk6GJQsqaUBKTNV-1">
          <mxGeometry x="620.0000000000002" y="720" width="120" height="60" as="geometry" />
        </mxCell>
        <mxCell id="ZSZEKu7pOIrbtc3AaUpl-21" style="edgeStyle=orthogonalEdgeStyle;rounded=0;orthogonalLoop=1;jettySize=auto;html=1;entryX=1;entryY=0.5;entryDx=0;entryDy=0;" edge="1" parent="WIyWlLk6GJQsqaUBKTNV-1" source="ZSZEKu7pOIrbtc3AaUpl-17" target="ZSZEKu7pOIrbtc3AaUpl-19">
          <mxGeometry relative="1" as="geometry" />
        </mxCell>
        <mxCell id="ZSZEKu7pOIrbtc3AaUpl-17" value="&lt;p class=&quot;MsoNormal&quot;&gt;&lt;span&gt;&lt;font face=&quot;宋体&quot; data-font-src=&quot;https://songti.laoxiezi.com/&quot; style=&quot;font-size: 18px&quot;&gt;&lt;b&gt;异常预测的结果信息&lt;/b&gt;&lt;/font&gt;&lt;span lang=&quot;EN-US&quot;&gt;&lt;/span&gt;&lt;/span&gt;&lt;/p&gt;" style="rounded=0;whiteSpace=wrap;html=1;" vertex="1" parent="WIyWlLk6GJQsqaUBKTNV-1">
          <mxGeometry x="354" y="580" width="120" height="60" as="geometry" />
        </mxCell>
        <mxCell id="ZSZEKu7pOIrbtc3AaUpl-20" style="edgeStyle=orthogonalEdgeStyle;rounded=0;orthogonalLoop=1;jettySize=auto;html=1;entryX=1;entryY=0.5;entryDx=0;entryDy=0;" edge="1" parent="WIyWlLk6GJQsqaUBKTNV-1" source="ZSZEKu7pOIrbtc3AaUpl-18" target="ZSZEKu7pOIrbtc3AaUpl-19">
          <mxGeometry relative="1" as="geometry" />
        </mxCell>
        <mxCell id="ZSZEKu7pOIrbtc3AaUpl-18" value="&lt;p class=&quot;MsoNormal&quot;&gt;&lt;span&gt;&lt;font face=&quot;宋体&quot; data-font-src=&quot;https://songti.laoxiezi.com/&quot; style=&quot;font-size: 18px&quot;&gt;&lt;b&gt;医生诊断结果&lt;/b&gt;&lt;/font&gt;&lt;span lang=&quot;EN-US&quot;&gt;&lt;/span&gt;&lt;/span&gt;&lt;/p&gt;" style="rounded=0;whiteSpace=wrap;html=1;" vertex="1" parent="WIyWlLk6GJQsqaUBKTNV-1">
          <mxGeometry x="354" y="700" width="120" height="60" as="geometry" />
        </mxCell>
        <mxCell id="ZSZEKu7pOIrbtc3AaUpl-19" value="&lt;p class=&quot;MsoNormal&quot;&gt;&lt;span&gt;&lt;font face=&quot;宋体&quot; data-font-src=&quot;https://songti.laoxiezi.com/&quot; style=&quot;font-size: 18px&quot;&gt;&lt;b&gt;可行性评价&lt;/b&gt;&lt;/font&gt;&lt;span lang=&quot;EN-US&quot;&gt;&lt;/span&gt;&lt;/span&gt;&lt;/p&gt;" style="rounded=0;whiteSpace=wrap;html=1;" vertex="1" parent="WIyWlLk6GJQsqaUBKTNV-1">
          <mxGeometry x="100" y="640" width="120" height="60" as="geometry" />
        </mxCell>
        <mxCell id="ZSZEKu7pOIrbtc3AaUpl-24" value="" style="whiteSpace=wrap;html=1;aspect=fixed;fontFamily=宋体;fontSource=https%3A%2F%2Fsongti.laoxiezi.com%2F;fontSize=18;fontColor=default;strokeColor=default;fillColor=none;rounded=1;" vertex="1" parent="WIyWlLk6GJQsqaUBKTNV-1">
          <mxGeometry x="-135" y="128" width="429" height="429" as="geometry" />
        </mxCell>
        <mxCell id="ZSZEKu7pOIrbtc3AaUpl-29" value="" style="rounded=1;whiteSpace=wrap;html=1;fontFamily=宋体;fontSource=https%3A%2F%2Fsongti.laoxiezi.com%2F;fontSize=18;fontColor=default;strokeColor=default;fillColor=none;" vertex="1" parent="WIyWlLk6GJQsqaUBKTNV-1">
          <mxGeometry x="517" y="76" width="362" height="603" as="geometry" />
        </mxCell>
        <mxCell id="ZSZEKu7pOIrbtc3AaUpl-30" value="&lt;p class=&quot;MsoNormal&quot;&gt;&lt;font&gt;&lt;b&gt;准确性评价&lt;/b&gt;&lt;/font&gt;&lt;span lang=&quot;EN-US&quot;&gt;&lt;/span&gt;&lt;/p&gt;" style="rounded=0;whiteSpace=wrap;html=1;fontFamily=宋体;fontSource=https%3A%2F%2Fsongti.laoxiezi.com%2F;fontSize=18;fontColor=default;strokeColor=none;fillColor=none;" vertex="1" parent="WIyWlLk6GJQsqaUBKTNV-1">
          <mxGeometry x="283" y="644.5" width="120" height="60" as="geometry" />
        </mxCell>
        <mxCell id="ZSZEKu7pOIrbtc3AaUpl-32" value="&lt;p class=&quot;MsoNormal&quot;&gt;&lt;font style=&quot;font-size: 24px&quot;&gt;&lt;b&gt;消化道异常的实时预测模型&lt;/b&gt;&lt;/font&gt;&lt;span lang=&quot;EN-US&quot;&gt;&lt;/span&gt;&lt;/p&gt;" style="rounded=0;whiteSpace=wrap;html=1;fontFamily=宋体;fontSource=https%3A%2F%2Fsongti.laoxiezi.com%2F;fontSize=18;fontColor=default;strokeColor=none;fillColor=none;" vertex="1" parent="WIyWlLk6GJQsqaUBKTNV-1">
          <mxGeometry x="579" y="-3" width="222" height="73" as="geometry" />
        </mxCell>
        <mxCell id="ZSZEKu7pOIrbtc3AaUpl-33" value="&lt;p class=&quot;MsoNormal&quot;&gt;&lt;font&gt;&lt;b&gt;建立样本数据库&lt;/b&gt;&lt;/font&gt;&lt;span lang=&quot;EN-US&quot;&gt;&lt;/span&gt;&lt;/p&gt;" style="rounded=0;whiteSpace=wrap;html=1;fontFamily=宋体;fontSource=https%3A%2F%2Fsongti.laoxiezi.com%2F;fontSize=24;fontColor=default;strokeColor=none;fillColor=none;" vertex="1" parent="WIyWlLk6GJQsqaUBKTNV-1">
          <mxGeometry x="-31" y="44" width="216" height="84" as="geometry" />
        </mxCell>
      </root>
    </mxGraphModel>
  </diagram>
</mxfile>
